<!DOCTYPE svg PUBLIC "-//W3C//DTD SVG 20010904//EN" "http://www.w3.org/TR/2001/REC-SVG-20010904/DTD/svg10.dtd">
<svg version="1.0" xmlns="http://www.w3.org/2000/svg" width="350px" height="80px" viewBox="0 0 3500 800" preserveAspectRatio="xMidYMid meet">
<g id="layer1" fill="#d9be63" stroke="none">
 <path d="M139 612 c-78 -41 -112 -94 -117 -182 -5 -81 9 -129 51 -176 90 -103 257 -112 354 -19 48 47 51 55 24 72 -17 10 -22 7 -46 -27 -59 -84 -156 -91 -231 -16 -54 53 -71 110 -56 184 14 66 42 107 92 132 71 36 152 17 193 -46 24 -37 38 -42 57 -19 11 13 8 21 -21 52 -75 79 -200 98 -300 45z"/>
 <path d="M1135 624 c-69 -36 -95 -79 -95 -159 0 -31 6 -70 14 -88 44 -104 178 -135 265 -61 25 21 51 74 51 107 0 4 -58 7 -130 7 -71 0 -130 4 -130 9 0 23 26 79 47 103 48 51 120 44 171 -17 18 -23 32 -31 41 -26 27 17 -44 108 -102 130 -40 16 -97 13 -132 -5z m135 -239 c0 -20 -28 -56 -52 -66 -38 -15 -71 -1 -93 41 l-16 30 81 0 c44 0 80 -2 80 -5z"/>
 <path d="M2035 615 c-18 -17 -25 -35 -25 -64 0 -59 38 -97 125 -126 77 -26 90 -46 60 -91 -13 -19 -23 -24 -47 -22 -33 3 -43 15 -53 61 -4 22 -11 27 -35 27 -23 0 -31 -5 -36 -25 -8 -33 -1 -50 30 -70 62 -41 171 -40 213 1 22 22 23 30 23 174 l0 150 -40 0 c-29 0 -40 -4 -40 -15 0 -12 -6 -12 -37 5 -53 28 -108 26 -138 -5z m141 -41 c33 -16 34 -18 34 -75 0 -33 -2 -59 -5 -59 -13 0 -72 34 -92 53 -27 24 -29 53 -6 79 20 22 26 22 69 2z"/>
 <path d="M540 462 l0 -169 25 -11 c56 -25 55 -27 55 168 l0 180 -40 0 -40 0 0 -168z"/>
 <path d="M690 455 l0 -175 40 0 c33 0 40 3 40 20 0 25 4 25 40 -2 19 -14 45 -21 75 -22 39 -1 51 3 71 27 23 27 24 34 24 178 l0 149 -34 0 -34 0 -4 -136 c-3 -122 -5 -137 -23 -150 -22 -16 -54 -12 -91 13 -23 15 -24 19 -24 144 l0 129 -40 0 -40 0 0 -175z"/>
 <path d="M1430 455 l0 -175 40 0 c36 0 40 2 40 26 l0 25 26 -20 c43 -33 97 -44 138 -27 19 8 38 22 44 32 9 16 11 16 37 -4 34 -27 96 -45 129 -36 13 3 35 17 48 31 22 23 23 33 26 174 l3 149 -40 0 -41 0 0 -130 c0 -119 -2 -132 -21 -151 -26 -26 -71 -20 -106 13 -22 20 -23 29 -23 145 l0 123 -34 0 -34 0 -4 -131 c-3 -125 -4 -132 -27 -151 -27 -21 -58 -18 -98 8 -22 14 -23 21 -23 144 l0 130 -40 0 -40 0 0 -175z"/>
 <path d="M2442 602 c12 -15 56 -67 97 -115 l73 -87 -86 -115 c-47 -63 -86 -117 -86 -120 0 -3 22 -5 49 -5 l49 0 67 86 67 86 27 -31 c14 -17 46 -56 71 -86 34 -41 52 -54 73 -55 15 0 27 3 27 6 0 3 -39 50 -86 104 l-85 99 91 121 c50 66 94 120 99 120 5 0 15 -9 22 -19 8 -11 47 -58 88 -105 l73 -86 -86 -113 c-47 -62 -86 -116 -86 -120 0 -4 22 -7 50 -7 l50 0 62 85 c35 46 65 84 68 84 3 0 37 -38 75 -84 58 -70 75 -85 99 -85 34 0 35 -1 -73 124 l-73 86 89 118 c118 155 114 142 51 142 l-54 0 -69 -95 c-39 -52 -72 -94 -75 -94 -3 -1 -41 42 -85 94 l-80 95 -75 0 -75 -1 -70 -94 c-38 -52 -72 -94 -75 -94 -3 0 -41 43 -84 95 -67 79 -84 94 -109 94 l-29 0 24 -28z"/>
 <path d="M3400 395 l0 -235 45 0 45 0 0 235 0 235 -45 0 -45 0 0 -235z"/>
 <path d="M540 165 c-21 -25 0 -50 41 -50 31 0 34 3 34 30 0 26 -4 30 -31 33 -19 2 -36 -3 -44 -13z"/>
 </g>

</svg>